<?xml version="1.0" encoding="utf-8"?>
<svg width="800px" height="600px"
     xmlns="http://www.w3.org/2000/svg"
     xmlns:xhtml="http://www.w3.org/1999/xhtml"
     xmlns:xlink="http://www.w3.org/1999/xlink"
     xmlns:a="http://www.adobe.com/svg10-extensions" a:timeline="independent"
     onload="top.load(evt)">

  <defs>
    <clipPath id="gameareaclip">
      <rect x="20" y="20" width="600" height="560"/>
    </clipPath>
    <pattern id="background_pattern" x="0" y="0" width="20" height="20" patternUnits="userSpaceOnUse">
      <rect
         style="fill:#7a7a7a;stroke:none"
         width="20"
         height="20"
         x="0"
         y="0" />
      <rect
         style="fill:#000080;stroke:none"
         width="9"
         height="9"
         x="1"
         y="0" />
      <rect
         style="fill:#000080;stroke:none"
         width="9"
         height="9"
         x="11"
         y="0" />
      <rect
         style="fill:#000080;stroke:none"
         width="9"
         height="9"
         x="5.5"
         y="10" />
      <rect
         style="fill:#000080;stroke:none"
         width="4.5"
         height="9"
         x="0"
         y="10" />
      <rect
         style="fill:#000080;stroke:none"
         width="4.5"
         height="9"
         x="15.5"
         y="10" />
    </pattern>
    <radialGradient id="player_color">
      <stop offset="0.0" style="stop-color:yellow;stop-opacity:1"/>
      <stop offset="0.8" style="stop-color:yellow;stop-opacity:1"/>
      <stop offset="1.0" style="stop-color:orange;stop-opacity:1"/>
    </radialGradient>
    <g id="monster">
      <g id="Layer1" name="Layer 1" opacity="1">
        
        <g id="Shape1">
            <desc shapeID="1" type="0" basicInfo-basicType="0" basicInfo-roundedRectRadius="12" basicInfo-polygonSides="6" basicInfo-starPoints="5" bounding="rect(-17.133,-12.7131,34.2661,25.4263)" text="" font-familyName="" font-pixelSize="20" font-bold="0" font-underline="0" font-alignment="1" strokeStyle="0" markerStart="0" markerEnd="0" shadowEnabled="0" shadowOffsetX="0" shadowOffsetY="2" shadowBlur="4" shadowOpacity="160" blurEnabled="0" blurRadius="4" transform="matrix(1,0,0,1,31.5876,15.2689)" pers-center="0,0" pers-size="0,0" pers-start="0,0" pers-end="0,0" locked="0" mesh="" flag=""/>
            <path id="shapePath1" d="M14.4546,2.5558 L48.7206,2.5558 L48.7206,27.9821 L14.4546,27.9821 L14.4546,2.5558 Z" style="stroke:#a8a8a8;stroke-opacity:1;stroke-width:0.669317;stroke-linejoin:round;stroke-miterlimit:2;stroke-linecap:butt;fill-rule:evenodd;fill:#14c9f8;fill-opacity:1;"/>
        </g>
        <g id="Shape2">
            <desc shapeID="2" type="0" basicInfo-basicType="0" basicInfo-roundedRectRadius="12" basicInfo-polygonSides="6" basicInfo-starPoints="5" bounding="rect(-2.08158,-12.7131,4.16316,25.4263)" text="" font-familyName="" font-pixelSize="20" font-bold="0" font-underline="0" font-alignment="1" strokeStyle="0" markerStart="0" markerEnd="0" shadowEnabled="0" shadowOffsetX="0" shadowOffsetY="2" shadowBlur="4" shadowOpacity="160" blurEnabled="0" blurRadius="4" transform="matrix(1,0,0,1,20.6993,15.2691)" pers-center="0,0" pers-size="0,0" pers-start="0,0" pers-end="0,0" locked="0" mesh="" flag=""/>
            <path id="shapePath2" d="M18.6178,2.556 L22.7809,2.556 L22.7809,27.9823 L18.6178,27.9823 L18.6178,2.556 Z" style="stroke:none;fill-rule:evenodd;fill:#ffffff;fill-opacity:1;"/>
        </g>
        <g id="Shape3">
            <desc shapeID="3" type="0" basicInfo-basicType="0" basicInfo-roundedRectRadius="12" basicInfo-polygonSides="6" basicInfo-starPoints="5" bounding="rect(-2.08158,-12.7131,4.16316,25.4263)" text="" font-familyName="" font-pixelSize="20" font-bold="0" font-underline="0" font-alignment="1" strokeStyle="0" markerStart="0" markerEnd="0" shadowEnabled="0" shadowOffsetX="0" shadowOffsetY="2" shadowBlur="4" shadowOpacity="160" blurEnabled="0" blurRadius="4" transform="matrix(1,0,0,1,29.7195,15.1351)" pers-center="0,0" pers-size="0,0" pers-start="0,0" pers-end="0,0" locked="0" mesh="" flag=""/>
            <path id="shapePath3" d="M27.638,2.422 L31.8011,2.422 L31.8011,27.8483 L27.638,27.8483 L27.638,2.422 Z" style="stroke:none;fill-rule:evenodd;fill:#ffffff;fill-opacity:1;"/>
        </g>
        <g id="Shape4">
            <desc shapeID="4" type="0" basicInfo-basicType="0" basicInfo-roundedRectRadius="12" basicInfo-polygonSides="6" basicInfo-starPoints="5" bounding="rect(-2.08158,-12.7131,4.16317,25.4263)" text="" font-familyName="" font-pixelSize="20" font-bold="0" font-underline="0" font-alignment="1" strokeStyle="0" markerStart="0" markerEnd="0" shadowEnabled="0" shadowOffsetX="0" shadowOffsetY="2" shadowBlur="4" shadowOpacity="160" blurEnabled="0" blurRadius="4" transform="matrix(1,0,0,1,37.8324,15.2689)" pers-center="0,0" pers-size="0,0" pers-start="0,0" pers-end="0,0" locked="0" mesh="" flag=""/>
            <path id="shapePath4" d="M35.7508,2.5558 L39.914,2.5558 L39.914,27.9821 L35.7508,27.9821 L35.7508,2.5558 Z" style="stroke:none;fill-rule:evenodd;fill:#ffffff;fill-opacity:1;"/>
        </g>
        <g id="Shape5">
            <desc shapeID="5" type="0" basicInfo-basicType="0" basicInfo-roundedRectRadius="12" basicInfo-polygonSides="6" basicInfo-starPoints="5" bounding="rect(-2.08158,-12.7131,4.16316,25.4263)" text="" font-familyName="" font-pixelSize="20" font-bold="0" font-underline="0" font-alignment="1" strokeStyle="0" markerStart="0" markerEnd="0" shadowEnabled="0" shadowOffsetX="0" shadowOffsetY="2" shadowBlur="4" shadowOpacity="160" blurEnabled="0" blurRadius="4" transform="matrix(1,0,0,1,45.6249,15.2689)" pers-center="0,0" pers-size="0,0" pers-start="0,0" pers-end="0,0" locked="0" mesh="" flag=""/>
            <path id="shapePath5" d="M43.5434,2.5558 L47.7065,2.5558 L47.7065,27.9821 L43.5434,27.9821 L43.5434,2.5558 Z" style="stroke:none;fill-rule:evenodd;fill:#ffffff;fill-opacity:1;"/>
        </g>
        <g id="Shape6">
            <desc shapeID="6" type="0" basicInfo-basicType="0" basicInfo-roundedRectRadius="12" basicInfo-polygonSides="6" basicInfo-starPoints="5" bounding="rect(-5.20843,-12.7763,10.4169,25.5526)" text="" font-familyName="" font-pixelSize="20" font-bold="0" font-underline="0" font-alignment="1" strokeStyle="0" markerStart="0" markerEnd="0" shadowEnabled="0" shadowOffsetX="0" shadowOffsetY="2" shadowBlur="4" shadowOpacity="160" blurEnabled="0" blurRadius="4" transform="matrix(1,0,0,1,9.17857,15.283)" pers-center="0,0" pers-size="0,0" pers-start="0,0" pers-end="0,0" locked="0" mesh="" flag=""/>
            <path id="shapePath6" d="M14.387,2.5067 C14.387,2.5067 0.624461,14.7256 4.7374,21.7854 C8.85035,28.8453 14.387,28.0307 14.387,28.0307 L14.387,2.5067 Z" style="stroke:#a8a8af;stroke-opacity:0.941176;stroke-width:0.820679;stroke-linejoin:round;stroke-miterlimit:2;stroke-linecap:butt;fill-rule:nonzero;fill:#f4e3d7;fill-opacity:1;"/>
        </g>
        <g id="Shape7">
            <desc shapeID="7" type="0" basicInfo-basicType="0" basicInfo-roundedRectRadius="12" basicInfo-polygonSides="6" basicInfo-starPoints="5" bounding="rect(-1.28097,-1.60587,2.56195,3.21174)" text="" font-familyName="" font-pixelSize="20" font-bold="0" font-underline="0" font-alignment="1" strokeStyle="0" markerStart="0" markerEnd="0" shadowEnabled="0" shadowOffsetX="0" shadowOffsetY="2" shadowBlur="4" shadowOpacity="160" blurEnabled="0" blurRadius="4" transform="matrix(1,0,0,1,10.7184,13.3953)" pers-center="0,0" pers-size="0,0" pers-start="0,0" pers-end="0,0" locked="0" mesh="" flag=""/>
            <path id="shapePath7" d="M11.9994,13.3953 C11.9994,14.2822 11.4259,15.0012 10.7184,15.0012 C10.011,15.0012 9.43745,14.2822 9.43745,13.3953 C9.43745,12.5084 10.011,11.7894 10.7184,11.7894 C11.4259,11.7894 11.9994,12.5084 11.9994,13.3953 Z" style="stroke:#241f1c;stroke-opacity:1;stroke-width:0.5;stroke-linejoin:round;stroke-miterlimit:2;stroke-linecap:butt;fill-rule:nonzero;fill:#241f1c;fill-opacity:1;"/>
        </g>
        <g id="Shape8">
            <desc shapeID="8" type="0" basicInfo-basicType="0" basicInfo-roundedRectRadius="12" basicInfo-polygonSides="6" basicInfo-starPoints="5" bounding="rect(-2.17479,-3.69003,4.34957,7.38005)" text="" font-familyName="" font-pixelSize="20" font-bold="0" font-underline="0" font-alignment="1" strokeStyle="0" markerStart="0" markerEnd="0" shadowEnabled="0" shadowOffsetX="0" shadowOffsetY="2" shadowBlur="4" shadowOpacity="160" blurEnabled="0" blurRadius="4" transform="matrix(1,0,0,1,3.52279,18.7832)" pers-center="0,0" pers-size="0,0" pers-start="0,0" pers-end="0,0" locked="0" mesh="" flag=""/>
            <path id="shapePath8" d="M1.75161,15.6703 C1.75161,15.6703 6.77058,14.7076 5.48778,15.2689 C3.04083,16.3395 3.66335,22.0937 5.48778,22.0937 C5.48778,22.0937 2.07185,23.0305 2.07185,21.9604 C2.07185,20.8898 0.684128,19.8191 1.75161,15.6706 L1.75161,15.6703 Z" style="stroke:#a8aff0;stroke-opacity:0;stroke-width:0.535454;stroke-linejoin:round;stroke-miterlimit:2;stroke-linecap:round;fill:none;"/>
        </g>
        <g id="Shape9">
            <desc shapeID="9" type="0" basicInfo-basicType="0" basicInfo-roundedRectRadius="12" basicInfo-polygonSides="6" basicInfo-starPoints="5" bounding="rect(-1.98874,-2.83952,3.97747,5.67904)" text="" font-familyName="" font-pixelSize="20" font-bold="0" font-underline="0" font-alignment="1" strokeStyle="0" markerStart="0" markerEnd="0" shadowEnabled="0" shadowOffsetX="0" shadowOffsetY="2" shadowBlur="4" shadowOpacity="160" blurEnabled="0" blurRadius="4" transform="matrix(1,0,0,1,2.85856,19.138)" pers-center="0,0" pers-size="0,0" pers-start="0,0" pers-end="0,0" locked="0" mesh="" flag=""/>
            <path id="shapePath9" d="M4.6338,16.4732 C4.20681,16.4732 1.75161,15.938 1.43136,16.7409 C1.11112,17.5438 0.470632,21.8261 1.21787,21.9599 C1.9651,22.0933 4.84729,21.4247 4.84729,21.4247 " style="stroke:#a8a8af;stroke-opacity:0.941176;stroke-width:0.669317;stroke-linejoin:round;stroke-miterlimit:2;stroke-linecap:butt;fill-rule:nonzero;fill:#f4e3d7;fill-opacity:1;"/>
            <animateTransform attributeName="transform" attributeType="XML"
                    type="scale" from="1" to="1.1" dur="0.5" repeatCount="indefinite"/>
        </g>
        <g id="Shape10">
            <desc shapeID="10" type="0" basicInfo-basicType="0" basicInfo-roundedRectRadius="12" basicInfo-polygonSides="6" basicInfo-starPoints="5" bounding="rect(-3.8559,-2.17902,7.71181,4.35805)" text="" font-familyName="" font-pixelSize="20" font-bold="0" font-underline="0" font-alignment="1" strokeStyle="0" markerStart="0" markerEnd="0" shadowEnabled="0" shadowOffsetX="0" shadowOffsetY="2" shadowBlur="4" shadowOpacity="160" blurEnabled="0" blurRadius="4" transform="matrix(1,0,0,1,10.1717,4.4833)" pers-center="0,0" pers-size="0,0" pers-start="0,0" pers-end="0,0" locked="0" mesh="" flag=""/>
            <path id="shapePath10" d="M14.0276,2.6895 C14.0276,2.6895 8.79696,1.0837 6.8755,4.4292 C4.95404,7.7748 8.47672,3.3586 9.97119,5.4998 C11.4657,7.641 10.0779,6.1689 10.0779,6.1689 " style="stroke:#a8a8af;stroke-opacity:0.941176;stroke-width:0.669317;stroke-linejoin:round;stroke-miterlimit:2;stroke-linecap:round;fill-rule:nonzero;fill:#f4e3d7;fill-opacity:1;"/>

        </g>
        <g id="Shape11">
            <desc shapeID="11" type="0" basicInfo-basicType="0" basicInfo-roundedRectRadius="12" basicInfo-polygonSides="6" basicInfo-starPoints="5" bounding="rect(-2.59591,-2.98401,5.19182,5.96801)" text="" font-familyName="" font-pixelSize="20" font-bold="0" font-underline="0" font-alignment="1" strokeStyle="0" markerStart="0" markerEnd="0" shadowEnabled="0" shadowOffsetX="0" shadowOffsetY="2" shadowBlur="4" shadowOpacity="160" blurEnabled="0" blurRadius="4" transform="matrix(1,0,0,1,51.7033,14.4606)" pers-center="0,0" pers-size="0,0" pers-start="0,0" pers-end="0,0" locked="0" mesh="" flag=""/>
            <path id="shapePath11" d="M49.115,17.4446 C49.1444,17.2144 49.0878,16.9693 49.115,16.7386 C49.1354,16.5663 49.1985,16.357 49.2446,16.1895 C49.2662,16.1115 49.2789,16.0281 49.3094,15.954 C49.3443,15.87 49.399,15.7996 49.439,15.7187 C49.4639,15.6697 49.4921,15.6183 49.5038,15.5618 C49.5144,15.5108 49.4799,15.4479 49.5038,15.4048 C49.5306,15.3568 49.6044,15.3738 49.6334,15.3268 C49.6744,15.2608 49.6573,15.1576 49.6982,15.0915 C49.7272,15.0455 49.7892,15.0485 49.8278,15.0135 C49.8767,14.9705 49.9142,14.9085 49.9574,14.8565 C49.979,14.8295 49.9933,14.7895 50.0222,14.7785 C50.0632,14.7615 50.1086,14.7785 50.1518,14.7785 C50.2166,14.7785 50.2823,14.7935 50.3463,14.7785 C50.4136,14.7635 50.4744,14.7195 50.5407,14.7005 C50.6006,14.6825 50.8796,14.7005 50.9295,14.7005 C51.1023,14.7005 51.2751,14.7005 51.4479,14.7005 C51.8058,14.7005 51.7126,14.6685 52.0311,14.7785 C52.0968,14.8015 52.1709,14.8065 52.2255,14.8565 C52.2642,14.8905 52.2501,14.9809 52.2903,15.0135 C52.3263,15.0415 52.384,14.9855 52.4199,15.0135 C52.4601,15.0465 52.4506,15.1289 52.4847,15.1702 C52.5189,15.2122 52.5875,15.2002 52.6143,15.2482 C52.6168,15.2632 52.6143,15.6257 52.6143,15.6406 C52.6143,15.8759 52.6143,16.1112 52.6143,16.3465 C52.6143,16.608 52.6143,16.8696 52.6143,17.1311 C52.6143,17.1561 52.6296,17.1911 52.6143,17.2091 C52.5991,17.2271 52.5711,17.2091 52.5495,17.2091 C52.4415,17.2091 52.3335,17.2091 52.2255,17.2091 C52.1175,17.2091 52.0095,17.2091 51.9015,17.2091 C51.8583,17.2091 51.8025,17.2461 51.7719,17.2091 C51.7414,17.1721 51.7912,17.0997 51.7719,17.0521 C51.7622,17.0281 51.7264,17.0671 51.7071,17.0521 C51.6793,17.0361 51.449,16.7404 51.4479,16.7384 C51.4359,16.7164 51.4547,16.6844 51.4479,16.6604 C51.4326,16.6054 51.4079,16.554 51.3831,16.5035 C51.343,16.4225 51.2824,16.3551 51.2535,16.2682 C51.2375,16.2202 51.264,16.1617 51.2535,16.1112 C51.2418,16.0542 51.1966,16.0122 51.1887,15.9543 C51.1745,15.8509 51.1887,15.7451 51.1887,15.6406 C51.1887,15.4837 51.1887,15.3268 51.1887,15.1698 C51.1887,15.0649 51.1887,14.9606 51.1887,14.856 C51.1887,14.778 51.1795,14.6983 51.1887,14.6207 C51.2314,14.259 51.2631,14.332 51.3831,13.9931 C51.4267,13.8702 51.4432,13.713 51.5127,13.6007 C51.5494,13.5427 51.5991,13.4958 51.6423,13.444 C51.6639,13.417 51.6934,13.398 51.7071,13.366 C51.7168,13.342 51.6918,13.306 51.7071,13.288 C51.8237,13.1471 51.8991,13.249 52.0311,13.21 C52.2615,13.141 52.0815,13.15 52.2255,12.9747 C52.2271,12.9747 52.5252,12.9747 52.5495,12.9747 C52.8088,12.9747 53.068,12.9747 53.3272,12.9747 C53.3488,12.9747 53.3704,12.9747 53.392,12.9747 C53.4352,12.9747 53.4845,12.9477 53.5216,12.9747 C53.6002,13.0317 53.6414,13.1456 53.716,13.21 C53.7946,13.278 53.901,13.292 53.9752,13.367 C54.035,13.427 54.0425,13.5458 54.1048,13.6023 C54.256,13.7402 54.2344,13.4809 54.2344,13.6803 C54.2344,13.7867 54.2693,13.9338 54.1696,13.9942 C54.131,14.0182 54.0786,13.9702 54.04,13.9942 C54.0127,14.0102 54.0025,14.0552 53.9752,14.0722 C53.9559,14.0872 53.932,14.0722 53.9104,14.0722 C53.7872,14.0722 53.7285,14.1022 53.6512,13.9153 C53.6319,13.8683 53.6512,13.8104 53.6512,13.7584 C53.6512,13.7054 53.6512,13.6534 53.6512,13.6014 C53.6512,13.4875 53.6375,13.1351 53.6512,13.0523 C53.6606,12.9953 53.7065,12.9533 53.716,12.8955 C53.7287,12.8175 53.7033,12.7371 53.716,12.66 C53.7254,12.603 53.7618,12.5566 53.7808,12.5031 C53.8266,12.3742 53.8646,12.2404 53.9104,12.1109 C53.9294,12.0569 53.941,11.9955 53.9752,11.9539 C54.0093,11.9119 54.078,11.9239 54.1048,11.8759 C54.164,11.768 54.0148,11.5462 54.1696,11.4837 C54.2106,11.4677 54.256,11.4837 54.2992,11.4837 " style="stroke:#f4e3d7;stroke-opacity:1;stroke-width:0.798572;stroke-linejoin:;stroke-miterlimit:2;stroke-linecap:butt;fill:none;"/>
        </g>
        <g id="Shape12">
            <desc shapeID="12" type="0" basicInfo-basicType="0" basicInfo-roundedRectRadius="12" basicInfo-polygonSides="6" basicInfo-starPoints="5" bounding="rect(-3.48693,-2.28433,6.97386,4.56867)" text="" font-familyName="" font-pixelSize="20" font-bold="0" font-underline="0" font-alignment="1" strokeStyle="0" markerStart="0" markerEnd="0" shadowEnabled="0" shadowOffsetX="0" shadowOffsetY="2" shadowBlur="4" shadowOpacity="160" blurEnabled="0" blurRadius="4" transform="matrix(1,0,0,1,19.412,30.4001)" pers-center="0,0" pers-size="0,0" pers-start="0,0" pers-end="0,0" locked="0" mesh="" flag=""/>
            <path id="shapePath12" d="M16.6963,28.1158 C16.7625,28.6014 16.3699,28.8078 16.2693,29.1864 C16.2009,29.4438 16.2247,29.7294 16.1626,29.9893 C16.1168,30.1804 15.9836,30.3299 15.9491,30.5246 C15.895,30.8294 15.9491,31.1491 15.9491,31.4613 C15.9491,31.5453 15.9359,31.9801 15.9491,31.9967 C15.976,32.0297 16.3775,32.3717 16.4828,32.3981 C16.5875,32.4251 16.6963,32.3981 16.803,32.3981 C16.8742,32.3981 16.9505,32.3651 17.0165,32.3981 C17.1357,32.4581 17.2151,32.615 17.3368,32.6658 C17.438,32.7078 17.5503,32.6658 17.657,32.6658 C17.7638,32.6658 17.8705,32.6658 17.9773,32.6658 C18.1908,32.6658 18.4043,32.6658 18.6178,32.6658 C18.7245,32.6658 18.8333,32.6928 18.938,32.6658 C19.094,32.6268 19.214,32.4612 19.365,32.3981 C19.6477,32.2797 19.2373,32.7858 19.792,32.2647 C19.8556,32.2047 19.8276,32.0417 19.8987,31.9971 C19.9942,31.9371 20.1199,32.0461 20.219,31.9971 C20.3124,31.9511 20.352,31.8051 20.4325,31.7295 C20.4961,31.6695 20.5823,31.6565 20.646,31.5961 C20.7265,31.5201 20.7883,31.4177 20.8595,31.3284 C20.895,31.2834 20.9212,31.2235 20.9662,31.195 C20.998,31.176 21.0411,31.215 21.073,31.195 C21.118,31.167 21.1347,31.0901 21.1797,31.0616 C21.2115,31.0416 21.2547,31.0806 21.2865,31.0616 C21.6657,30.824 21.0448,31.0116 21.3932,30.794 C21.4786,30.74 21.6281,30.848 21.7135,30.794 C21.9137,30.6681 21.7591,30.6223 21.8202,30.3925 C21.8361,30.3325 21.8914,30.3025 21.927,30.2591 C21.9981,30.1691 22.0567,30.0616 22.1405,29.9916 C22.1701,29.9676 22.2221,30.0226 22.2472,29.9916 C22.2724,29.9596 22.2221,29.8897 22.2472,29.8582 C22.3035,29.7872 22.4045,29.7952 22.4607,29.7248 C22.4859,29.6928 22.4495,29.6338 22.4607,29.5914 C22.4859,29.4974 22.5197,29.4036 22.5675,29.3237 C22.6279,29.2233 22.7251,29.1611 22.781,29.056 C22.8054,29.01 22.7576,28.684 22.781,28.6546 C22.8061,28.6236 22.8626,28.6856 22.8877,28.6546 C22.9129,28.6236 22.8877,28.5666 22.8877,28.5213 C22.8877,28.4763 22.8877,28.4313 22.8877,28.3879 " style="stroke:#f4e3d7;stroke-opacity:1;stroke-width:1.33863;stroke-linejoin:;stroke-miterlimit:2;stroke-linecap:butt;fill-rule:nonzero;fill:#f4e3d7;fill-opacity:1;"/>

        </g>
        <g id="Shape13">
            <desc shapeID="13" type="0" basicInfo-basicType="0" basicInfo-roundedRectRadius="12" basicInfo-polygonSides="6" basicInfo-starPoints="5" bounding="rect(-2.89167,-2.68474,5.78334,5.36948)" text="" font-familyName="" font-pixelSize="20" font-bold="0" font-underline="0" font-alignment="1" strokeStyle="0" markerStart="0" markerEnd="0" shadowEnabled="0" shadowOffsetX="0" shadowOffsetY="2" shadowBlur="4" shadowOpacity="160" blurEnabled="0" blurRadius="4" transform="matrix(1,0,0,1,42.9539,30.8005)" pers-center="0,0" pers-size="0,0" pers-start="0,0" pers-end="0,0" locked="0" mesh="" flag=""/>
            <path id="shapePath13" d="M40.0741,28.1158 C40.1374,28.3835 40.0275,28.8942 40.0741,29.1864 C40.0961,29.3243 40.1365,29.4582 40.1808,29.5878 C40.2435,29.7713 40.344,29.9339 40.3943,30.1232 C40.4168,30.2072 40.3625,30.311 40.3943,30.3907 C40.4393,30.5031 40.5474,30.5575 40.6078,30.6584 C40.6556,30.7374 40.6583,30.8555 40.7146,30.9261 C40.7397,30.9581 40.7917,30.9021 40.8213,30.9261 C40.905,30.9961 40.9636,31.1045 41.0348,31.1936 C41.1416,31.327 41.2391,31.4741 41.355,31.5952 C41.9602,32.2274 41.3714,31.4753 42.1023,32.1304 C42.2251,32.2398 42.2915,32.4381 42.4225,32.5319 C42.5499,32.6229 42.7147,32.5939 42.8495,32.6653 C42.9674,32.7283 43.048,32.882 43.1698,32.933 C43.3751,33.018 43.6029,32.988 43.8102,33.0664 C43.9627,33.1234 44.0848,33.2768 44.2372,33.3341 C44.6516,33.49 44.8248,33.4675 45.198,33.4675 C45.2691,33.4675 45.3403,33.4675 45.4115,33.4675 C45.4826,33.4675 45.5613,33.5075 45.625,33.4675 C45.6568,33.4475 45.625,33.3775 45.625,33.3341 C45.625,32.9772 45.625,32.6204 45.625,32.2635 C45.625,31.5025 45.5772,32.1755 45.7317,31.5944 C45.7542,31.5094 45.7317,31.4161 45.7317,31.3267 C45.7317,31.0145 45.7317,30.7023 45.7317,30.39 C45.7317,30.0331 45.7317,29.6762 45.7317,29.3194 C45.7317,29.2594 45.7155,28.9588 45.7317,28.918 C45.7542,28.861 45.8159,28.84 45.8385,28.7846 C45.8544,28.7436 45.8385,28.6946 45.8385,28.6512 C45.8385,28.6062 45.8385,28.5632 45.8385,28.5178 " style="stroke:#f4e3d7;stroke-opacity:1;stroke-width:0.669317;stroke-linejoin:;stroke-miterlimit:2;stroke-linecap:butt;fill-rule:nonzero;fill:#f4e3d7;fill-opacity:1;"/>
        </g>
        <g id="Shape14">
            <desc shapeID="14" type="0" basicInfo-basicType="0" basicInfo-roundedRectRadius="12" basicInfo-polygonSides="6" basicInfo-starPoints="5" bounding="rect(-2.61857,-2.2726,5.23715,4.5452)" text="" font-familyName="" font-pixelSize="20" font-bold="0" font-underline="0" font-alignment="1" strokeStyle="0" markerStart="0" markerEnd="0" shadowEnabled="0" shadowOffsetX="0" shadowOffsetY="2" shadowBlur="4" shadowOpacity="160" blurEnabled="0" blurRadius="4" transform="matrix(1,0,0,1,9.91071,10.3393)" pers-center="0,0" pers-size="0,0" pers-start="0,0" pers-end="0,0" locked="0" mesh="" flag=""/>
            <path id="shapePath14" d="M12.5293,8.0667 C7.38086,12.6019 7.29214,12.6119 7.29214,12.6119 L12.5293,8.0667 Z" style="stroke:#000000;stroke-opacity:1;stroke-width:1.6;stroke-linejoin:;stroke-miterlimit:2;stroke-linecap:butt;fill:none;"/>
        </g>
          <text xml:space="preserve" text-anchor="start" font-family="'Simonetta', serif" font-size="15" font-weight="bold" y="20" x="15" stroke-opacity="null" stroke-width="0" stroke="#000" fill="#000000">User</text>
    </g>
    </g>
    <g id="bullet">
      <circle cx="5" cy="5" r="5" style="fill:yellow"/>
      <circle cx="6" cy="3" r="1" style="fill:orange"/>
    </g>
    <g id="monsterBullet">
      <circle cx="5" cy="5" r="5" style="fill:black"/>
      <circle cx="6" cy="3" r="1" style="fill:pink"/>
    </g>
     <g id="player_character" name="Layer 1" opacity="1">
         <g height = "40px" width = "40px" transform="translate(0, 40) scale(0.0175000,-0.0175000)"
                      fill="#3B5998" stroke="none">
         <path d="M80 2232 c-19 -9 -45 -32 -57 -51 l-23 -34 0 -1016 c0 -948 1 -1018
18 -1050 9 -19 30 -44 45 -55 28 -21 40 -21 583 -24 l554 -2 0 440 0 440 -140
0 -140 0 0 160 0 160 139 0 139 0 4 198 c4 173 7 204 27 254 44 114 126 189
254 231 52 17 87 21 212 21 83 0 162 -3 178 -7 l27 -7 0 -144 0 -144 -134 -4
c-118 -3 -138 -6 -163 -24 -48 -35 -53 -57 -53 -221 l0 -153 163 0 164 0 -23
-152 c-13 -84 -24 -156 -24 -160 0 -5 -63 -8 -140 -8 l-140 0 0 -440 0 -441
304 3 c290 3 306 4 333 24 15 11 36 36 46 55 16 32 17 98 15 1056 -3 1015 -3
1022 -24 1050 -11 15 -36 36 -55 45 -32 17 -102 18 -1044 18 -942 0 -1012 -1
-1045 -18z"/>
     </g>
    </g>
    <g id="goodThing" name="Layer 1" opacity="1">
        <g transform="scale(0.2)">
            <rect id="svg_1" height="100" width="150" stroke-width="1.5" stroke="#000" fill="#FFE7A2"/>
            <line stroke-linecap="undefined" stroke-linejoin="undefined" id="svg_2" y2="-1" x2="1" y1="47" x1="74" stroke-width="1.5" stroke="#000" fill="none"/>
            <line stroke="#000" stroke-linecap="undefined" stroke-linejoin="undefined" id="svg_3" y2="47" x2="74" y1="0" x1="150" stroke-width="1.5" fill="none"/>
            <ellipse id="svg_7" cy="147" cx="-40" stroke-opacity="null" stroke-width="1.5" stroke="#000" fill="#8B4D4B"/>
            <text xml:space="preserve" text-anchor="start" font-family="'Simonetta', serif" font-size="45" id="svg_11" y="75" x="30" stroke-opacity="null" stroke-width="0" stroke="#000" fill="#000000">data</text>
        </g>
    </g>
    <g id="exit" name="Layer 1" opacity="1">
        <g id="Shape1">
            <desc shapeID="1" type="0" basicInfo-basicType="1" basicInfo-roundedRectRadius="12" basicInfo-polygonSides="6" basicInfo-starPoints="5" bounding="rect(-30.0516,-6.8937,60.1032,13.7874)" text="" font-familyName="Helvetica" font-pixelSize="20" font-bold="0" font-underline="0" font-alignment="1" strokeStyle="0" markerStart="0" markerEnd="0" shadowEnabled="0" shadowOffsetX="0" shadowOffsetY="2" shadowBlur="4" shadowOpacity="160" blurEnabled="0" blurRadius="4" transform="matrix(1,0,0,1,29.9484,6.8937)" pers-center="0,0" pers-size="0,0" pers-start="0,0" pers-end="0,0" locked="0" mesh="" flag=""/>
            <path id="shapePath1" d="M-0.103153,0 L60,0 L60,13.7874 L-0.103153,13.7874 L-0.103153,0 Z" style="stroke:#323232;stroke-opacity:1;stroke-width:0.5;stroke-linejoin:miter;stroke-miterlimit:2;stroke-linecap:round;fill-rule:evenodd;fill:#4169E1;fill-opacity:1;"/>
        </g>
        <g id="Shape2">
            <text font-family="Tw Cen MT" font-size="13px" align = "middle" transform="matrix(1,0,0,1,23.7799,10.93716)">Jail</text>
        </g>
        <g id="Shape3">
            <desc shapeID="3" type="0" basicInfo-basicType="1" basicInfo-roundedRectRadius="12" basicInfo-polygonSides="6" basicInfo-starPoints="5" bounding="rect(-29.8039,-13.1682,59.6078,26.3364)" text="" font-familyName="Helvetica" font-pixelSize="20" font-bold="0" font-underline="0" font-alignment="1" strokeStyle="0" markerStart="0" markerEnd="0" shadowEnabled="0" shadowOffsetX="0" shadowOffsetY="2" shadowBlur="4" shadowOpacity="160" blurEnabled="0" blurRadius="4" transform="matrix(1.00831,0,0,1,29.9484,26.9556)" pers-center="0,0" pers-size="0,0" pers-start="0,0" pers-end="0,0" locked="0" mesh="" flag=""/>
            <path id="shapePath3" d="M-0.103153,13.7874 L60,13.7874 L60,40.1238 L-0.103153,40.1238 L-0.103153,13.7874 Z" style="stroke:#323232;stroke-opacity:1;stroke-width:0.5;stroke-linejoin:miter;stroke-miterlimit:2;stroke-linecap:round;fill-rule:evenodd;fill:#93ffe6;fill-opacity:1;"/>
        </g>
        <g id="Shape4">
            <desc shapeID="4" type="0" basicInfo-basicType="1" basicInfo-roundedRectRadius="12" basicInfo-polygonSides="6" basicInfo-starPoints="5" bounding="rect(-0.0412788,-13.0856,0.0825577,26.1713)" text="" font-familyName="Helvetica" font-pixelSize="20" font-bold="0" font-underline="0" font-alignment="1" strokeStyle="0" markerStart="0" markerEnd="0" shadowEnabled="0" shadowOffsetX="0" shadowOffsetY="2" shadowBlur="4" shadowOpacity="160" blurEnabled="0" blurRadius="4" transform="matrix(1,0,0,1,31.3725,27.3271)" pers-center="0,0" pers-size="0,0" pers-start="0,0" pers-end="0,0" locked="0" mesh="" flag=""/>
            <path id="shapePath4" d="M31.3312,14.2415 L31.4138,14.2415 L31.4138,40.4128 L31.3312,40.4128 L31.3312,14.2415 Z" style="stroke:#323232;stroke-opacity:1;stroke-width:0.5;stroke-linejoin:miter;stroke-miterlimit:2;stroke-linecap:round;fill-rule:evenodd;fill:#4B0082;fill-opacity:1;"/>
        </g>
        <g id="Shape5">
            <desc shapeID="5" type="0" basicInfo-basicType="1" basicInfo-roundedRectRadius="12" basicInfo-polygonSides="6" basicInfo-starPoints="5" bounding="rect(-1.36223,-3.75645,2.72445,7.51289)" text="" font-familyName="Helvetica" font-pixelSize="20" font-bold="0" font-underline="0" font-alignment="1" strokeStyle="0" markerStart="0" markerEnd="0" shadowEnabled="0" shadowOffsetX="0" shadowOffsetY="2" shadowBlur="4" shadowOpacity="160" blurEnabled="0" blurRadius="4" transform="matrix(1,0,0,1,27.4922,25.8411)" pers-center="0,0" pers-size="0,0" pers-start="0,0" pers-end="0,0" locked="0" mesh="" flag=""/>
            <path id="shapePath5" d="M26.13,22.0846 L28.8545,22.0846 L28.8545,29.5975 L26.13,29.5975 L26.13,22.0846 Z" style="stroke:#323232;stroke-opacity:1;stroke-width:0.5;stroke-linejoin:miter;stroke-miterlimit:2;stroke-linecap:round;fill-rule:evenodd;fill:#4B0082;fill-opacity:1;"/>
        </g>
        <g id="Shape6">
            <desc shapeID="6" type="0" basicInfo-basicType="1" basicInfo-roundedRectRadius="12" basicInfo-polygonSides="6" basicInfo-starPoints="5" bounding="rect(-1.89886,-3.79773,3.79773,7.59545)" text="" font-familyName="Helvetica" font-pixelSize="20" font-bold="0" font-underline="0" font-alignment="1" strokeStyle="0" markerStart="0" markerEnd="0" shadowEnabled="0" shadowOffsetX="0" shadowOffsetY="2" shadowBlur="4" shadowOpacity="160" blurEnabled="0" blurRadius="4" transform="matrix(1,0,0,1,34.7987,25.8823)" pers-center="0,0" pers-size="0,0" pers-start="0,0" pers-end="0,0" locked="0" mesh="" flag=""/>
            <path id="shapePath6" d="M32.8999,22.0846 L36.6976,22.0846 L36.6976,29.6801 L32.8999,29.6801 L32.8999,22.0846 Z" style="stroke:#323232;stroke-opacity:1;stroke-width:0.5;stroke-linejoin:miter;stroke-miterlimit:2;stroke-linecap:round;fill-rule:evenodd;fill:#4B0082;fill-opacity:1;"/>
        </g>
    </g>
  </defs>

  <rect width="100%" height="100%" style="fill:url(#background_pattern);stroke:orange;stroke-width:4" />

  <rect x="20" y="20" width="600" height="560" style="fill:black;stroke:#3B5998;stroke-width:5" />

  <!-- Add your button here
  <g onclick="top.zoomFunction()" transform="translate(640,20)">
    <rect x="0" y="0" width="140" height="40" style="fill:white;stroke:red;stroke-width:2" />
    <text x="70" y="28" style="fill:red;font-size:25px;text-anchor:middle">Zoom</text>
  </g>
  -->
    <!-- Level
    <g transform="translate(640, 120)">
        <text x="70" y="0" style="fill:orange;font-size:25px;font-weight:bold;text-anchor:middle">
            Level:
        </text>
        <rect x="0" y="10" width="140" height="35" style="fill:white" />
        <text id="level" x="70" y="36" style="fill:orange;font-size:25px;text-anchor:middle">1</text>
    </g>
    -->
    <!-- Score -->
    <g transform="translate(640, 120)">
        <text x="70" y="0" style="fill:orange;font-size:25px;font-weight:bold;text-anchor:middle">
            Score:
        </text>
        <rect x="0" y="10" width="140" height="35" style="fill:white" />
        <text id="score" x="70" y="36" style="fill:orange;font-size:25px;text-anchor:middle">0</text>
    </g>
    
    <!-- Bullet -->
    <g transform="translate(640, 200)">
        <text x="70" y="0" style="fill:orange;font-size:25px;font-weight:bold;text-anchor:middle">
            Bullets:
        </text>
        <rect x="0" y="10" width="140" height="35" style="fill:white" />
        <text id="numberOfBullet" x="70" y="36" style="fill:orange;font-size:25px;text-anchor:middle">8</text>
    </g>

    <!-- Time remaining -->
    <g transform="translate(640, 280)">
        <text x="70" y="0" style="fill:orange;font-size:25px;font-weight:bold;text-anchor:middle">
            Time:
        </text>
        <rect x="0" y="10" width="140" height="35" style="fill:white" />
        <rect id = "timeRemainingBar" x="0" y="10" width="140" height="35" style="fill:#3B5998" />
        <text id="timeRemaining" x="70" y="36" style="fill:orange;font-size:25px;text-anchor:middle">60</text>
    </g>

    <!-- Cheat Mode -->
    <g transform="translate(640, 360)">
        <text x="70" y="0" style="fill:orange;font-size:25px;font-weight:bold;text-anchor:middle">
            Cheat Mode:
        </text>
        <rect x="0" y="10" width="140" height="35" style="fill:white" />
        <text id="cheatMode" x="70" y="36" style="fill:orange;font-size:25px;text-anchor:middle">Off</text>
    </g>

    <g style="clip-path:url(#gameareaclip)">
        <g transform="translate(20,20)">
            <g id="gamearea" transform="translate(0,0)" width="600" height="560">
            <rect x="0" y="0" width="600" height="560" style="fill:white" />

            <g id="platforms">
                <!-- Add your platforms here -->
                <rect x="0" y="540" width="260" height="20" style="fill:#6A5ACD" />
                <rect x="340" y="540" width="260" height="20" style="fill:#6A5ACD" />

                <rect x="0" y="80" width="30" height="20" style="fill:#6A5ACD" />

                <rect x="0" y="0" width="260" height="20" style="fill:#6A5ACD" />
                <rect x="340" y="0" width="260" height="20" style="fill:#6A5ACD" />

                <rect x="360" y="460" width="160" height="20" style="fill:#6A5ACD" />
                <rect x="50" y="420" width="120" height="20" style="fill:#6A5ACD" />

                <rect x="100" y="360" width="260" height="20" style="fill:#6A5ACD" />

                <rect x="260" y="240" width="160" height="20" style="fill:#6A5ACD" />
                <rect x="0" y="240" width="140" height="20" style="fill:#6A5ACD" />

                <rect x="440" y="120" width="100" height="20" style="fill:#6A5ACD" />
                <rect x="100" y="120" width="240" height="20" style="fill:#6A5ACD" />

                <rect x="480" y="200" width="80" height="20" style="fill:#6A5ACD" />
                <rect x="480" y="320" width="80" height="20" style="fill:#6A5ACD" />

                <rect type="disappearing" x="520" y="460" width="80" height="20" style="fill:#9370DB; opacity:1" />
                <rect type="disappearing" x="0" y="460" width="80" height="20" style="fill:#9370DB; opacity:1" />
                <rect type="disappearing" x="0" y="120" width="100" height="20" style="fill:#9370DB; opacity:1" />
            </g>

            <g id="portal1" transform="translate(260, 0)" x="260" y="0" width="80" height="20">
                <desc shapeID="1" type="0" basicInfo-basicType="4" basicInfo-roundedRectRadius="12" basicInfo-polygonSides="6" basicInfo-starPoints="5" bounding="rect(-38.2597,-8.57405,76.5194,17.1481)" text="" font-familyName="Helvetica" font-pixelSize="20" font-bold="0" font-underline="0" font-alignment="1" strokeStyle="0" markerStart="0" markerEnd="0" shadowEnabled="0" shadowOffsetX="0" shadowOffsetY="2" shadowBlur="4" shadowOpacity="160" blurEnabled="0" blurRadius="4" transform="matrix(1.04549,0,0,1.16631,40,10)" pers-center="0,0" pers-size="0,0" pers-start="0,0" pers-end="0,0" locked="0" mesh="" flag=""/>
                <path id="shapePath1" d="M-7.62939e-06,9.99999 C-7.62939e-06,4.47715 17.9086,-1.90735e-06 40,0 C62.0914,2.86102e-06 80,4.47716 80,10 C80,15.5228 62.0914,20 40,20 C17.9086,20 -7.62939e-06,15.5228 -7.62939e-06,9.99999 Z" style="stroke:#bb7300;stroke-opacity:1;stroke-width:0.5;stroke-linejoin:miter;stroke-miterlimit:2;stroke-linecap:round;fill-rule:evenodd;fill:url(#linearGradientFill1);fill-opacity:1;"/><defs><linearGradient id="linearGradientFill1" gradientUnits="userSpaceOnUse" x1="-7.62939e-06" y1="10" x2="80" y2="10"><stop offset="0" stop-color="#6495ED" stop-opacity="1"/><stop offset="1" stop-color="#B0C4DE" stop-opacity="1"/></linearGradient></defs>
            </g>
            <g id="portal2" opacity="1" transform="translate(260, 540)" width="80" height="20" x="260" y="540">
                <g id="Shape1">
                     <desc shapeID="1" type="0" basicInfo-basicType="4" basicInfo-roundedRectRadius="12" basicInfo-polygonSides="6" basicInfo-starPoints="5" bounding="rect(-38.2597,-8.57405,76.5194,17.1481)" text="" font-familyName="Helvetica" font-pixelSize="20" font-bold="0" font-underline="0" font-alignment="1" strokeStyle="0" markerStart="0" markerEnd="0" shadowEnabled="0" shadowOffsetX="0" shadowOffsetY="2" shadowBlur="4" shadowOpacity="160" blurEnabled="0" blurRadius="4" transform="matrix(1.04549,0,0,1.16631,40,10)" pers-center="0,0" pers-size="0,0" pers-start="0,0" pers-end="0,0" locked="0" mesh="" flag=""/>
                    <path id="shapePath1" d="M-7.62939e-06,9.99999 C-7.62939e-06,4.47715 17.9086,-1.90735e-06 40,0 C62.0914,2.86102e-06 80,4.47716 80,10 C80,15.5228 62.0914,20 40,20 C17.9086,20 -7.62939e-06,15.5228 -7.62939e-06,9.99999 Z" style="stroke:#373dbb;stroke-opacity:1;stroke-width:0.5;stroke-linejoin:miter;stroke-miterlimit:2;stroke-linecap:round;fill-rule:evenodd;fill:url(#linearGradientFill1);fill-opacity:1;"/><defs><linearGradient id="linearGradientFill1" gradientUnits="userSpaceOnUse" x1="-7.62939e-06" y1="10" x2="80" y2="10"><stop offset="0" stop-color="#B0C4DE" stop-opacity="1"/><stop offset="1" stop-color="#6495ED" stop-opacity="1"/></linearGradient></defs>
                </g>
            </g>
            <use id="exitDoor" xlink:href="#exit" x="540" y="500"/>
            
            <text id="playerName" x="20" y="-5" style="fill:black;font-size:12px;text-anchor:middle"> </text>
            <g id="player">
                <use xlink:href="#player_character" />
            </g>
            <g id="monsters" />
            <g id="goodThings" />
            <g id="bullets" />
            <g id="monsterBullets" />
          </g>
        </g>
    </g>

    <g id="highscoretable" style="visibility:hidden">
        <rect width="600" height="560" style="fill:#3B5998;opacity:0.5" transform="translate(20,20)"/>
        <text transform="translate(60,50)" x="260" y="40" style="fill:white;font-size:30px;font-weight:bold;text-anchor:middle;font-family:Century Gothic;">
            High Score Table
        </text>
        <g transform="translate(60,80)">
            <rect width="520" height="240" style="fill:black;opacity:0.8" transform="translate(5,65)"/>
            <rect width="520" height="240" style="fill:white;stroke:blue;stroke-width:2" transform="translate(0,60)"/>
            <text id="highscoretext" y="65" style="font-size: 20px;font-weight:bold"/>
        </g>
        <g transform="translate(200,400)translate(50,-20)">
            <rect x="-77" y="3" width="340" height="60" style="fill:black;stroke:black;stroke-width:2;opacity:0.65" />
            <rect x="-80" y="0" width="340" height="60" style="fill:white;stroke:blue;stroke-width:2" />
            <text id="playerinfo" x="95" y="38" style="fill:#3B5998;font-size:18px;text-anchor:middle;font-family:Century Gothic;">PlayerName, You get PlayerScore</text>
        </g>
        <g onclick="top.restartGame()" transform="translate(200,400)translate(50,40)">
            <rect x="3" y="3" width="180" height="60" style="fill:black;stroke:black;stroke-width:2;opacity:0.65" />
            <rect x="0" y="0" width="180" height="60" style="fill:white;stroke:#3B5998;stroke-width:2" />
            <text x="95" y="38" style="fill:#3B5998;font-size:25px;text-anchor:middle;font-family:Century Gothic;">Start Again?</text>
        </g>
    </g>
    
    <!-- Starting Screen -->
    <g id="startingScreen" transform="translate(20,20)">
        <rect width="760" height="560" style="fill:white;stroke:#3B5998;stroke-width:2"/>
        <g onclick="top.startGame()" transform="translate(60,450)">
            <rect x="0" y="0" width="140" height="40" style="fill:white;stroke:#3B5998;stroke-width:2" />
            <text x="70" y="28" style="fill:#3B5998;font-size:18px;text-anchor:middle">Normal Mode</text>
        </g>
        <g onclick="top.zoomFunction()" transform="translate(220,450)">
            <rect x="0" y="0" width="140" height="40" style="fill:white;stroke:#3B5998;stroke-width:2" />
            <text x="70" y="28" style="fill:#3B5998;font-size:18px;text-anchor:middle">Zoom Mode</text>
        </g>
        <text x="210" y="400" style="fill:#3B5998;font-size:25px;text-anchor:middle">Zhao Xinran 20413198</text>
        <g transform="translate(100.000000,310.000000) scale(0.100000,-0.100000)"
           fill="#3B5998" stroke="none">
            <path d="M80 2232 c-19 -9 -45 -32 -57 -51 l-23 -34 0 -1016 c0 -948 1 -1018
18 -1050 9 -19 30 -44 45 -55 28 -21 40 -21 583 -24 l554 -2 0 440 0 440 -140
0 -140 0 0 160 0 160 139 0 139 0 4 198 c4 173 7 204 27 254 44 114 126 189
254 231 52 17 87 21 212 21 83 0 162 -3 178 -7 l27 -7 0 -144 0 -144 -134 -4
c-118 -3 -138 -6 -163 -24 -48 -35 -53 -57 -53 -221 l0 -153 163 0 164 0 -23
-152 c-13 -84 -24 -156 -24 -160 0 -5 -63 -8 -140 -8 l-140 0 0 -440 0 -441
304 3 c290 3 306 4 333 24 15 11 36 36 46 55 16 32 17 98 15 1056 -3 1015 -3
1022 -24 1050 -11 15 -36 36 -55 45 -32 17 -102 18 -1044 18 -942 0 -1012 -1
-1045 -18z"/>
        </g>
        <g id="Layer2" name="Layer 1" opacity="1">
            <defs>
                <filter id="svg_3_blur">
                    <feGaussianBlur stdDeviation="1" in="SourceGraphic"/>
                </filter>
            </defs>
            <g>
                <text filter="url(#svg_3_blur)" font-weight="bold" xml:space="preserve" text-anchor="start" font-family="'Trebuchet MS', Gadget, sans-serif" font-size="35" id="svg_3" y="40" x="181.5" fill-opacity="null" stroke-opacity="null" stroke-width="0" stroke="#000" fill="#000000">The Empire Strikes Back</text>
            </g>

            <g transform = "translate(370, 50) scale(1.5)">
                <text stroke="#000" xml:space="preserve" text-anchor="start" font-family="Helvetica, Arial, sans-serif" font-size="16" id="svg_1" y="40" x="14.5" stroke-width="0" fill="#000000">You are a very hungry company</text>
  <text stroke="#000" xml:space="preserve" text-anchor="start" font-family="Helvetica, Arial, sans-serif" font-size="16" id="svg_2" y="60" x="14.5" stroke-width="0" fill="#000000">You want to buy the data</text>
  <text stroke="#000" xml:space="preserve" text-anchor="start" font-family="Helvetica, Arial, sans-serif" font-size="16" id="svg_2" y="85" x="14.5" stroke-width="0" fill="#000000">or kill the users for it</text>
  <text style="cursor: move;" xml:space="preserve" text-anchor="start" font-family="Helvetica, Arial, sans-serif" font-size="16" id="svg_4" y="110" x="14.5" fill-opacity="null" stroke-opacity="null" stroke-width="0" stroke="#000" fill="#000000">Press A/D to move</text>
  <text xml:space="preserve" text-anchor="start" font-family="Helvetica, Arial, sans-serif" font-size="16" id="svg_5" y="160" x="14.5" fill-opacity="null" stroke-opacity="null" stroke-width="0" stroke="#000" fill="#000000">Users may kill you</text>
                <text xml:space="preserve" text-anchor="start" font-family="Helvetica, Arial, sans-serif" font-size="16" id="svg_5" y="185" x="14.5" fill-opacity="null" stroke-opacity="null" stroke-width="0" stroke="#000" fill="#000000">if they find what you did</text>

  <text stroke="#000" xml:space="preserve" text-anchor="start" font-family="Helvetica, Arial, sans-serif" font-size="20" id="svg_6" y="208" x="14.5" stroke-opacity="0.5" stroke-width="1" fill="red">Let them vanish with space</text>
  <text xml:space="preserve" text-anchor="start" font-family="Helvetica, Arial, sans-serif" font-size="15" id="svg_8" y="230" x="14.5" stroke-opacity="null" stroke-width="0" stroke="#000" fill="#000000">Feel free to cheat with C/V</text>
  <text xml:space="preserve" text-anchor="start" font-family="Helvetica, Arial, sans-serif" font-size="15" id="svg_9" y="255" x="14.5" stroke-opacity="null" stroke-width="0" stroke="#000" fill="#000000">Collect all the data</text>
  <text xml:space="preserve" text-anchor="start" font-family="Helvetica, Arial, sans-serif" font-size="15" id="svg_9" y="280" x="14.5" stroke-opacity="null" stroke-width="0" stroke="#000" fill="#000000">and go where you belong</text>
  <text xml:space="preserve" text-anchor="start" font-family="Helvetica, Arial, sans-serif" font-size="16" id="svg_12" y="135" x="15.5" stroke-opacity="null" stroke-width="0" stroke="#000" fill="#000000">Press W to jump</text>
            </g>
        </g>

    </g>
</svg>
